<svg width="1591" height="542" xmlns="http://www.w3.org/2000/svg" xmlns:xlink="http://www.w3.org/1999/xlink" xml:space="preserve" overflow="hidden"><defs><filter id="fx0" x="-10%" y="-10%" width="120%" height="120%" filterUnits="userSpaceOnUse" primitiveUnits="userSpaceOnUse"><feComponentTransfer color-interpolation-filters="sRGB"><feFuncR type="discrete" tableValues="0 0"/><feFuncG type="discrete" tableValues="0 0"/><feFuncB type="discrete" tableValues="0 0"/><feFuncA type="linear" slope="0.4" intercept="0"/></feComponentTransfer><feGaussianBlur stdDeviation="3.56855 3.56855"/></filter><clipPath id="clip1"><rect x="1050" y="1134" width="1591" height="542"/></clipPath><clipPath id="clip2"><rect x="167" y="132" width="1269" height="200"/></clipPath></defs><g clip-path="url(#clip1)" transform="translate(-1050 -1134)"><g clip-path="url(#clip2)" filter="url(#fx0)" transform="translate(1049 1133)"><g><path d="M21.3125 0 21.3125-162.992 80.1641-162.992C90.2552-162.992 99.3372-161.075 107.41-157.24 115.483-153.406 121.861-147.755 126.543-140.287 131.225-132.82 133.566-123.677 133.566-112.859 133.566-102.284 131.225-93.4036 126.543-86.2187 121.861-79.0338 115.483-73.5846 107.41-69.8711 99.3372-66.1575 90.2552-64.3008 80.1641-64.3008L43.1094-64.3008 43.1094 0ZM43.1094-82.3437 78.4687-82.3437C88.3177-82.3437 96.2897-84.8665 102.385-89.9121 108.48-94.9577 111.527-102.607 111.527-112.859 111.527-123.839 108.46-131.952 102.324-137.199 96.1888-142.447 88.237-145.07 78.4687-145.07L43.1094-145.07ZM193.278 0 193.278-64.9062 137.454-162.992 161.431-162.992 204.419-84.2812 247.165-162.992 271.263-162.992 215.317-64.9062 215.317 0ZM337.685 2.17969C326.06 2.17969 315.565 0.403646 306.2-3.14844 296.836-6.70052 289.388-12.2708 283.858-19.8594 278.328-27.4479 275.564-37.2969 275.564-49.4062L297.481-49.4062C297.481-40.7682 299.358-33.987 303.112-29.0625 306.866-24.138 311.851-20.6667 318.067-18.6484 324.284-16.6302 331.105-15.6211 338.532-15.6211 345.394-15.6211 351.671-16.6504 357.362-18.709 363.054-20.7676 367.595-23.8756 370.985-28.0332 374.376-32.1908 376.071-37.5391 376.071-44.0781 376.071-49.7292 374.739-54.3711 372.075-58.0039 369.411-61.6367 364.991-64.8053 358.815-67.5098 352.64-70.2142 344.345-72.8984 333.931-75.5625 321.66-78.7917 311.569-82.3236 303.657-86.1582 295.746-89.9928 289.873-94.776 286.038-100.508 282.203-106.24 280.286-113.505 280.286-122.305 280.286-131.589 282.466-139.399 286.825-145.736 291.185-152.074 297.441-156.897 305.595-160.207 313.748-163.517 323.436-165.172 334.657-165.172 345.152-165.172 354.759-163.477 363.478-160.086 372.196-156.695 379.159-151.609 384.366-144.828 389.573-138.047 392.177-129.611 392.177-119.52L370.38-119.52C370.461-128.723 367.07-135.686 360.208-140.408 353.346-145.131 344.87-147.492 334.778-147.492 324.364-147.492 316.271-145.413 310.499-141.256 304.727-137.098 301.841-131.023 301.841-123.031 301.841-118.268 303.092-114.292 305.595-111.104 308.097-107.915 312.396-105.029 318.491-102.445 324.586-99.862 333.083-97.1575 343.981-94.332 356.575-90.9414 366.808-87.3086 374.679-83.4336 382.55-79.5586 388.342-74.5937 392.056-68.5391 395.769-62.4844 397.626-54.5325 397.626-44.6836 397.626-34.1888 395.002-25.4902 389.755-18.5879 384.508-11.6855 377.363-6.4987 368.321-3.02734 359.28 0.44401 349.067 2.17969 337.685 2.17969ZM427.465 0 427.465-162.992 531.484-162.992 531.484-144.828 449.261-144.828 449.261-92.8789 524.945-92.8789 524.945-74.957 449.261-74.957 449.261-18.1641 531.484-18.1641 531.484 0ZM564.965 0 564.965-162.992 587.246-162.992 676.613-33.3008 676.613-162.992 697.32-162.992 697.32 0 675.039 0 585.55-129.934 585.55 0ZM789.716 2.17969C778.091 2.17969 767.596 0.403646 758.231-3.14844 748.867-6.70052 741.42-12.2708 735.89-19.8594 730.36-27.4479 727.595-37.2969 727.595-49.4062L749.513-49.4062C749.513-40.7682 751.39-33.987 755.144-29.0625 758.897-24.138 763.882-20.6667 770.099-18.6484 776.315-16.6302 783.136-15.6211 790.563-15.6211 797.425-15.6211 803.702-16.6504 809.394-18.709 815.085-20.7676 819.626-23.8756 823.017-28.0332 826.407-32.1908 828.102-37.5391 828.103-44.0781 828.102-49.7292 826.77-54.3711 824.106-58.0039 821.442-61.6367 817.022-64.8053 810.847-67.5098 804.671-70.2142 796.376-72.8984 785.962-75.5625 773.691-78.7917 763.6-82.3236 755.688-86.1582 747.777-89.9928 741.904-94.776 738.069-100.508 734.235-106.24 732.317-113.505 732.317-122.305 732.317-131.589 734.497-139.399 738.856-145.736 743.216-152.074 749.472-156.897 757.626-160.207 765.78-163.517 775.467-165.172 786.688-165.172 797.183-165.172 806.79-163.477 815.509-160.086 824.228-156.695 831.19-151.609 836.397-144.828 841.604-138.047 844.208-129.611 844.208-119.52L822.411-119.52C822.492-128.723 819.101-135.686 812.239-140.408 805.377-145.131 796.901-147.492 786.81-147.492 776.396-147.492 768.302-145.413 762.53-141.256 756.758-137.098 753.872-131.023 753.872-123.031 753.872-118.268 755.123-114.292 757.626-111.104 760.129-107.915 764.427-105.029 770.522-102.445 776.617-99.862 785.114-97.1575 796.013-94.332 808.606-90.9414 818.839-87.3086 826.71-83.4336 834.581-79.5586 840.373-74.5937 844.087-68.5391 847.8-62.4844 849.657-54.5325 849.657-44.6836 849.657-34.1888 847.034-25.4902 841.786-18.5879 836.539-11.6855 829.394-6.4987 820.353-3.02734 811.311 0.44401 801.099 2.17969 789.716 2.17969ZM879.496 0 879.496-162.992 901.293-162.992 901.293 0ZM943.662 0 943.662-162.992 965.944-162.992 1055.31-33.3008 1055.31-162.992 1076.02-162.992 1076.02 0 1053.74 0 964.248-129.934 964.248 0ZM1188.15 2.17969C1171.2 2.17969 1156.93-1.33203 1145.35-8.35547 1133.76-15.3789 1125-25.1673 1119.07-37.7207 1113.13-50.2741 1110.17-64.8255 1110.17-81.375 1110.17-98.0052 1113.13-112.617 1119.07-125.211 1125-137.805 1133.76-147.613 1145.35-154.637 1156.93-161.66 1171.2-165.172 1188.15-165.172 1196.55-165.172 1204.58-164.102 1212.25-161.963 1219.92-159.824 1226.86-156.594 1233.08-152.275 1239.29-147.956 1244.4-142.527 1248.4-135.988 1252.39-129.449 1254.83-121.74 1255.72-112.859L1233.93-112.859C1233.12-119.076 1230.8-124.787 1226.96-129.994 1223.13-135.201 1217.92-139.399 1211.34-142.588 1204.76-145.777 1196.95-147.371 1187.91-147.371 1174.83-147.371 1164.18-144.404 1155.94-138.471 1147.71-132.537 1141.69-124.605 1137.9-114.676 1134.1-104.746 1132.21-93.6458 1132.21-81.375 1132.21-69.1849 1134.12-58.1452 1137.96-48.2559 1141.79-38.3665 1147.83-30.5156 1156.06-24.7031 1164.3-18.8906 1174.99-15.9844 1188.15-15.9844 1199.53-15.9844 1208.88-18.0228 1216.19-22.0996 1223.49-26.1764 1228.94-31.8678 1232.53-39.1738 1236.13-46.4798 1238-54.8958 1238.16-64.4219L1190.57-64.4219 1190.57-82.4648 1259.48-82.4648 1259.48-69.75C1259.48-55.6224 1256.83-43.1497 1251.54-32.332 1246.26-21.5143 1238.35-13.0579 1227.81-6.96289 1217.28-0.867839 1204.06 2.17969 1188.15 2.17969Z" transform="matrix(1 0 0 1 160.229 314)"/></g></g><text font-family="Aptos,Aptos_MSFontService,sans-serif" font-weight="400" font-size="248" transform="matrix(1 0 0 1 1205.41 1444)">PYSENSING</text></g></svg>